<svg width="40" height="40" viewBox="0 0 40 40" fill="none" xmlns="http://www.w3.org/2000/svg">
<g clip-path="url(#clip0_69_598)">
<path d="M39.3207 29.5455L36.2162 16.3304C35.9567 15.2198 34.8417 14.5273 33.729 14.7873L30.846 15.4648C29.7645 15.7184 29.0811 16.7844 29.2883 17.867L29.1567 17.9146C28.3821 18.1959 27.6159 18.0488 26.6297 17.7202L22.9325 16.4915C20.696 15.7451 18.6572 16.1242 17.3057 17.5284H10.7491C10.7724 16.5702 10.1231 15.692 9.1551 15.465L6.2705 14.7871C5.15925 14.5273 4.04393 15.2199 3.78456 16.3305L0.679557 29.5466C0.420104 30.6573 1.11112 31.7724 2.21964 32.0323L5.10424 32.7102C5.26214 32.7471 5.4201 32.7648 5.57565 32.7648C6.15667 32.7648 6.70401 32.5178 7.0901 32.1047L13.5295 38.5245C14.0982 39.0916 14.8446 39.3752 15.5914 39.3752C16.3382 39.3752 17.0895 39.0899 17.6599 38.5195C17.9191 38.2588 18.1182 37.9607 18.2587 37.6428L18.5614 37.9445C19.1874 38.5683 19.8976 38.8309 20.5816 38.8309C21.3735 38.8309 22.13 38.4788 22.6796 37.9277C22.9353 37.6712 23.1478 37.3698 23.3017 37.0412C23.8496 37.4739 24.445 37.6616 25.0219 37.6616C25.8139 37.6616 26.5704 37.3096 27.1199 36.7584C27.625 36.2517 27.9609 35.5703 28.0099 34.8484C28.7317 34.7973 29.4124 34.4598 29.9179 33.953C30.3671 33.5027 30.683 32.9144 30.7823 32.2823C30.91 32.2967 31.0385 32.3048 31.1676 32.3048C31.6425 32.3048 32.1226 32.2063 32.5789 32.0041L32.761 31.9237C33.1467 32.4446 33.7638 32.7646 34.4254 32.7646C34.5812 32.7646 34.7396 32.7469 34.8977 32.7099L37.7805 32.0324C38.8893 31.7725 39.5803 30.6574 39.3207 29.5455ZM5.53198 30.8847L2.64807 30.2069C2.54675 30.1831 2.48143 30.0761 2.50518 29.9744L5.61003 16.7581L5.61034 16.757C5.63089 16.669 5.71315 16.6078 5.80065 16.6078C5.81464 16.6078 5.8287 16.6094 5.84276 16.6127L8.72659 17.2904C8.82628 17.3138 8.89307 17.4227 8.86956 17.523L5.76464 30.7419C5.74073 30.8432 5.63417 30.9085 5.53198 30.8848V30.8847ZM28.5903 32.6288C28.4674 32.7523 27.818 33.3334 27.1246 32.6417L22.423 27.9513C22.0564 27.5856 21.4628 27.5863 21.0971 27.9529C20.7314 28.3195 20.7321 28.913 21.0988 29.2787L25.8004 33.9691C26.4935 34.6605 25.9149 35.3112 25.7919 35.4345C25.6689 35.558 25.0196 36.1391 24.3253 35.4473L19.2871 30.4226C18.9205 30.0569 18.3269 30.0577 17.9612 30.4244C17.5956 30.791 17.5964 31.3846 17.963 31.7502L21.3593 35.1373C21.3593 35.1373 21.3599 35.138 21.3602 35.1383C22.0533 35.8298 21.4747 36.4804 21.3517 36.6038C21.2285 36.7273 20.579 37.3081 19.885 36.6165L16.1512 32.8939C15.7846 32.5284 15.1908 32.5292 14.8253 32.8959C14.4597 33.2626 14.4607 33.8562 14.8273 34.2217L16.3288 35.7187C16.7364 36.1251 16.7371 36.7884 16.3322 37.1955C15.9247 37.603 15.2614 37.6034 14.8534 37.1967L7.8212 30.1859L10.3539 19.4034H15.6292L13.6509 21.6224C12.4535 22.9662 12.7138 24.3194 13.5028 25.0643C14.7722 26.2627 17.4482 26.1395 19.7286 23.8591C20.1431 23.4446 20.501 23.0866 21.5927 24.1766L28.6052 31.1692C29.289 31.8584 28.7131 32.5057 28.5903 32.6288ZM30.05 29.962L29.9291 29.8413C29.9273 29.8395 29.9257 29.8377 29.9238 29.8358L29.0889 29.0031C29.0874 29.0017 29.0858 29.0005 29.0844 28.9991L22.9171 22.8494C20.9194 20.8546 19.3596 21.5765 18.4028 22.5331C16.8348 24.1012 15.2415 24.127 14.7899 23.7008C14.5548 23.4788 14.8941 23.0456 15.0507 22.8699L18.5809 18.9102C19.713 17.6398 21.4213 17.9638 22.3401 18.2704L26.0376 19.4992C27.1661 19.8753 28.3917 20.1581 29.7176 19.7045L32.1678 30.136L31.8207 30.2891C31.1964 30.5657 30.534 30.443 30.0501 29.9619L30.05 29.962ZM37.3521 30.207L34.4699 30.8844C34.3674 30.9083 34.2599 30.8432 34.236 30.7415L31.1313 17.5234C31.1076 17.4226 31.1744 17.3138 31.2745 17.2903L34.1567 16.613C34.1711 16.6096 34.1854 16.608 34.1997 16.608C34.2878 16.608 34.3699 16.6691 34.3903 16.757L37.4952 29.9732C37.5192 30.0762 37.4539 30.1832 37.3521 30.2071V30.207ZM16.5475 8.69219C16.1763 8.33125 16.168 7.73773 16.5289 7.36648C16.8899 6.99523 17.4835 6.98695 17.8546 7.34781L19.1127 8.57094L22.1398 5.57133C22.5076 5.20695 23.1012 5.20953 23.4656 5.57734C23.83 5.94516 23.8274 6.53875 23.4596 6.90313L19.7789 10.5504C19.5963 10.7313 19.3576 10.822 19.119 10.822C18.8832 10.822 18.6475 10.7336 18.4655 10.5566L16.5477 8.69203L16.5475 8.69219ZM20.0003 15.497C24.1001 15.497 27.4354 12.1617 27.4354 8.06203C27.4354 3.96234 24.1001 0.625 20.0003 0.625C15.9006 0.625 12.5652 3.96125 12.5652 8.06211C12.5652 12.163 15.9006 15.497 20.0003 15.497ZM20.0003 2.5C23.0661 2.5 25.5604 4.99516 25.5604 8.06211C25.5604 11.1291 23.0661 13.622 20.0003 13.622C16.9346 13.622 14.4402 11.1279 14.4402 8.06211C14.4402 4.99633 16.9345 2.5 20.0003 2.5Z" fill="white"/>
</g>
<defs>
<clipPath id="clip0_69_598">
<rect width="40" height="40" fill="white"/>
</clipPath>
</defs>
</svg>
